<?xml version="1.0" encoding="utf-8"?>
<!-- Generator: Adobe Illustrator 19.0.0, SVG Export Plug-In . SVG Version: 6.00 Build 0)  -->
<svg version="1.1" id="Layer_1" xmlns="http://www.w3.org/2000/svg" xmlns:xlink="http://www.w3.org/1999/xlink" x="0px" y="0px"
	 viewBox="0 0 595.3 841.9" style="enable-background:new 0 0 595.3 841.9;" xml:space="preserve">
<style type="text/css">
	.st0{fill:#EEEEEE;}
</style>
<g id="XMLID_2_">
	<path id="XMLID_64_" class="st0" d="M269.6,119.4c3.8,3.8,7.3,7.2,11,10.8c-3.4,6.2-4.1,13-4.1,20c0.1,17.5-0.1,34.9,0.1,52.4
		c0.1,4.6,0.7,9.3,1.8,13.8c1.1,4.9,5.8,8.4,10.4,8.5c4.8,0.1,8.8-2.5,10.4-7.8c1.2-4.1,2.1-8.6,2.1-12.9
		c0.2-16.1,0.1-32.3,0.1-48.4c0-1.3,0-2.6,0-4.7c5.6,5.5,10.7,10.4,15.6,15.5c0.6,0.6,0.7,2,0.6,3c0,12.9,0.1,25.9-0.3,38.8
		c-0.1,4.3-1.3,8.7-2.7,12.8c-4.8,13.1-14.7,19.3-28.5,18.2c-12.6-1-22.1-10.2-24.6-24c-0.8-4.6-1.4-9.3-1.4-13.9
		c0-19.9,0.1-39.7,0.5-59.6C260.9,133.6,263.5,125.8,269.6,119.4z"/>
	<path id="XMLID_63_" class="st0" d="M402.7,243.8c-1.7-1.7-3.2-3-4.5-4.3c44.4-72.4,8.3-160.1-61.7-187.8
		c-72.7-28.9-155,13.7-173,90.8c-5.3-3.4-5.7-3.9-3.5-10.3c17.3-51.3,52.1-83.6,105.5-93.3c47.4-8.7,88.6,5.5,122,40.3
		c21.2,22,32.7,48.8,35.7,79.3c2.8,29-3.3,56.1-17.8,81.3C404.6,240.9,403.7,242.1,402.7,243.8z"/>
	<path id="XMLID_62_" class="st0" d="M361.2,138.3c-5,16.1-10,32.2-15.3,49.5c-4-4.3-7.4-7.8-10.6-11.5c-0.6-0.7-0.8-2.5-0.4-3.5
		c7.3-19,14.6-37.9,22-56.9c0.4-1.1,1.9-2.5,2.9-2.6c6-0.2,11.9-0.1,18.3-0.1c0,25.4,0,50.3,0,75.7c4.2,0,8,0,12.2,0
		c0,5.8,0,11.1,0,16.9c-3.9,0-7.7,0-11.9,0c0,4.3,0,8.3,0,11.6c-9.4-9.4-18.9-19-28.1-28.2c3,0,7,0,11.4,0c0-17.2,0-34,0-50.8
		C361.5,138.5,361.4,138.4,361.2,138.3z"/>
	<path id="XMLID_61_" class="st0" d="M207,186.7c-4.1-4.2-7.8-7.7-11.3-11.5c-0.5-0.5-0.3-2,0.1-2.8c7.2-18.8,14.5-37.7,21.9-56.5
		c0.4-1,1.6-2.4,2.5-2.5c6.1-0.2,12.2-0.1,18.7-0.1c0,25.4,0,50.4,0,75.8c4.2,0,8,0,12.2,0c0,5.7,0,10.9,0,16.7c-3.8,0-7.7,0-12,0
		c0,4.2,0,7.9,0,11.1c-9.2-9.2-18.5-18.5-27.6-27.6c3,0,6.8,0,10.9,0c0-17.2,0-34,0-50.8c-0.2-0.1-0.4-0.1-0.5-0.2
		C217.1,154.2,212.2,170,207,186.7z"/>
	<path id="XMLID_60_" class="st0" d="M394.6,244.5c1.6,1.6,3,3,4.4,4.4c-31,45.9-94.6,71.3-156.5,48.8
		c-62.4-22.7-98.4-87.1-85.6-152.4c3.1,2.3,5.5,4,4.8,8.8c-10,65.6,37.3,131.8,102.7,142.9c53.5,9.1,96.5-8.7,129.4-51.6
		C394,245.2,394.3,244.9,394.6,244.5z"/>
	<path id="XMLID_59_" class="st0" d="M274.6,116c14-8.3,32.2-2.9,38.8,10.9c4.7,9.8,4.5,20.2,4.1,31.4c-5.7-5.5-10.9-10.5-15.9-15.7
		c-0.8-0.8-0.8-2.5-1-3.8c-1.1-7.7-5.5-11.7-12.9-11.8c-1,0-2.2-0.3-2.8-0.9C281.4,122.8,278.1,119.5,274.6,116z"/>
	<path id="XMLID_58_" class="st0" d="M192.3,181.3c8.4,8.3,16.4,16.3,24.5,24.4c-8.6,0-17.4,0-26.7,0
		C190.9,197.5,188.4,189.1,192.3,181.3z"/>
	<path id="XMLID_57_" class="st0" d="M354.3,205.8c-7.5,0-16,0-25,0c0.7-8.1-1.5-16.2,1.7-23.4C338.9,190.3,346.8,198.2,354.3,205.8
		z"/>
	<path id="XMLID_56_" class="st0" d="M223,237.9c0-8.9,0-17.4,0-27.2c5.6,5.7,11.1,10.2,15.1,15.8c1.9,2.6,0.9,7.3,1.2,11.4
		C233.6,237.9,228.5,237.9,223,237.9z"/>
	<path id="XMLID_55_" class="st0" d="M362.3,211.6c5.5,5.5,10.8,10,14.9,15.4c1.8,2.5,1,7,1.4,10.9c-5.9,0-10.9,0-16.3,0
		C362.3,229.5,362.3,221.1,362.3,211.6z"/>
</g>
<g id="XMLID_1_">
	<path id="XMLID_19_" class="st0" d="M60.9,162.4v8.2h7.8v1.1h-7.8v8.3h8.7v1.1h-9.9v-19.7h9.9v1.1H60.9z"/>
	<path id="XMLID_21_" class="st0" d="M84,181l-5-8.4h-0.1h-4.2v8.4h-1.3v-19.7h5.4c2.2,0,3.8,0.5,4.9,1.5c1.1,1,1.6,2.4,1.6,4.1
		c0,1.5-0.4,2.8-1.3,3.7c-0.8,1-2.1,1.6-3.7,1.8l5.2,8.5H84z M74.6,171.5h4.2c1.7,0,3-0.4,3.9-1.3c0.9-0.8,1.3-2,1.3-3.3
		c0-3-1.7-4.5-5.2-4.5h-4.1V171.5z"/>
	<path id="XMLID_24_" class="st0" d="M99.7,181l-5-8.4h-0.1h-4.2v8.4h-1.3v-19.7h5.4c2.2,0,3.8,0.5,4.9,1.5c1.1,1,1.6,2.4,1.6,4.1
		c0,1.5-0.4,2.8-1.3,3.7c-0.8,1-2.1,1.6-3.7,1.8l5.2,8.5H99.7z M90.3,171.5h4.2c1.7,0,3-0.4,3.9-1.3c0.9-0.8,1.3-2,1.3-3.3
		c0-3-1.7-4.5-5.2-4.5h-4.1V171.5z"/>
	<path id="XMLID_27_" class="st0" d="M108.7,179.9c-1.5-0.8-2.6-2-3.4-3.6c-0.8-1.5-1.2-3.3-1.2-5.2c0-1.9,0.4-3.7,1.2-5.2
		c0.8-1.5,2-2.7,3.4-3.6s3.1-1.3,4.9-1.3c1.8,0,3.4,0.4,4.9,1.3s2.6,2,3.4,3.6c0.8,1.5,1.2,3.3,1.2,5.2c0,1.9-0.4,3.6-1.2,5.2
		c-0.8,1.5-2,2.7-3.4,3.6s-3.1,1.3-4.9,1.3C111.7,181.2,110.1,180.8,108.7,179.9z M117.8,179c1.3-0.7,2.2-1.8,3-3.1
		c0.7-1.3,1.1-2.9,1.1-4.7c0-1.8-0.4-3.4-1.1-4.7c-0.7-1.3-1.7-2.4-3-3.1s-2.7-1.1-4.2-1.1c-1.5,0-2.9,0.4-4.2,1.1s-2.2,1.8-3,3.1
		c-0.7,1.3-1.1,2.9-1.1,4.7c0,1.8,0.4,3.4,1.1,4.7c0.7,1.3,1.7,2.4,3,3.1s2.7,1.1,4.2,1.1C115.1,180.1,116.5,179.7,117.8,179z"/>
	<path id="XMLID_30_" class="st0" d="M137.5,181l-5-8.4h-0.1h-4.2v8.4h-1.3v-19.7h5.4c2.2,0,3.8,0.5,4.9,1.5c1.1,1,1.6,2.4,1.6,4.1
		c0,1.5-0.4,2.8-1.3,3.7c-0.8,1-2.1,1.6-3.7,1.8l5.2,8.5H137.5z M128.2,171.5h4.2c1.7,0,3-0.4,3.9-1.3c0.9-0.8,1.3-2,1.3-3.3
		c0-3-1.7-4.5-5.2-4.5h-4.1V171.5z"/>
</g>
<g id="XMLID_5_">
	<path id="XMLID_7_" class="st0" d="M444.8,161.3v1.1h-8.9v8.2h7.8v1.1h-7.8v9.3h-1.3v-19.7H444.8z"/>
	<path id="XMLID_9_" class="st0" d="M452,179.9c-1.5-0.8-2.6-2-3.4-3.6c-0.8-1.5-1.2-3.3-1.2-5.2c0-1.9,0.4-3.7,1.2-5.2
		c0.8-1.5,2-2.7,3.4-3.6c1.5-0.8,3.1-1.3,4.9-1.3c1.8,0,3.4,0.4,4.9,1.3c1.5,0.8,2.6,2,3.4,3.6c0.8,1.5,1.2,3.3,1.2,5.2
		c0,1.9-0.4,3.6-1.2,5.2c-0.8,1.5-2,2.7-3.4,3.6c-1.5,0.8-3.1,1.3-4.9,1.3C455,181.2,453.4,180.8,452,179.9z M461.1,179
		c1.3-0.7,2.2-1.8,3-3.1c0.7-1.3,1.1-2.9,1.1-4.7c0-1.8-0.4-3.4-1.1-4.7c-0.7-1.3-1.7-2.4-3-3.1c-1.3-0.7-2.7-1.1-4.2-1.1
		s-3,0.4-4.2,1.1s-2.2,1.8-3,3.1c-0.7,1.3-1.1,2.9-1.1,4.7c0,1.8,0.4,3.4,1.1,4.7c0.7,1.3,1.7,2.4,3,3.1s2.7,1.1,4.2,1.1
		S459.8,179.7,461.1,179z"/>
	<path id="XMLID_12_" class="st0" d="M471.4,161.3v12.3c0,2.2,0.5,3.8,1.5,4.9s2.4,1.6,4.1,1.6c1.7,0,3.1-0.5,4.1-1.5
		c1-1,1.5-2.7,1.5-4.9v-12.3h1.3v12.3c0,2.6-0.6,4.5-1.8,5.7c-1.2,1.3-2.9,1.9-5,1.9s-3.7-0.6-5-1.9c-1.3-1.3-1.9-3.2-1.9-5.7v-12.3
		H471.4z"/>
	<path id="XMLID_14_" class="st0" d="M502.3,181h-1.3l-11.5-17.6V181h-1.3v-19.6h1.3l11.5,17.5v-17.5h1.3V181z"/>
	<path id="XMLID_16_" class="st0" d="M520.2,163.9c1.8,1.7,2.7,4.2,2.7,7.3s-0.9,5.5-2.7,7.2c-1.8,1.7-4.4,2.6-7.7,2.6H507v-19.7
		h5.5C515.8,161.3,518.4,162.2,520.2,163.9z M519.2,177.6c1.5-1.5,2.3-3.7,2.3-6.4c0-2.8-0.8-4.9-2.3-6.5c-1.5-1.5-3.8-2.3-6.8-2.3
		h-4.3v17.5h4.3C515.4,179.9,517.7,179.2,519.2,177.6z"/>
</g>
<g id="XMLID_3_">
	<path id="XMLID_33_" class="st0" d="M293.6,159.5h-0.8l-7.4-11.3v11.3h-0.8v-12.6h0.8l7.4,11.3v-11.3h0.8V159.5z"/>
	<path id="XMLID_35_" class="st0" d="M285.9,176.8c-0.9-0.5-1.7-1.3-2.2-2.3c-0.5-1-0.8-2.1-0.8-3.3c0-1.2,0.3-2.4,0.8-3.3
		c0.5-1,1.3-1.7,2.2-2.3s2-0.8,3.1-0.8s2.2,0.3,3.1,0.8c0.9,0.5,1.7,1.3,2.2,2.3c0.5,1,0.8,2.1,0.8,3.3c0,1.2-0.3,2.3-0.8,3.3
		c-0.5,1-1.3,1.7-2.2,2.3c-0.9,0.5-2,0.8-3.1,0.8S286.8,177.4,285.9,176.8z M291.8,176.2c0.8-0.5,1.4-1.1,1.9-2
		c0.5-0.9,0.7-1.9,0.7-3c0-1.2-0.2-2.2-0.7-3c-0.5-0.9-1.1-1.5-1.9-2c-0.8-0.5-1.7-0.7-2.7-0.7s-1.9,0.2-2.7,0.7
		c-0.8,0.5-1.4,1.1-1.9,2c-0.5,0.9-0.7,1.9-0.7,3c0,1.2,0.2,2.2,0.7,3c0.5,0.9,1.1,1.5,1.9,2c0.8,0.5,1.7,0.7,2.7,0.7
		S290.9,176.7,291.8,176.2z"/>
	<path id="XMLID_38_" class="st0" d="M293.1,182.9v0.7h-3.6v12h-0.8v-12H285v-0.7H293.1z"/>
</g>
</svg>
